<?xml version="1.0" standalone="no"?><!DOCTYPE svg PUBLIC "-//W3C//DTD SVG 1.1//EN" "http://www.w3.org/Graphics/SVG/1.1/DTD/svg11.dtd"><svg t="1641371814415" class="icon" viewBox="0 0 1097 1024" version="1.1" xmlns="http://www.w3.org/2000/svg" p-id="17440" xmlns:xlink="http://www.w3.org/1999/xlink" width="214.2578125" height="200"><defs><style type="text/css"></style></defs><path d="M416.914286 124.342857c14.628571 0 21.942857 7.314286 21.942857 21.942857v256c0 14.628571-7.314286 21.942857-21.942857 21.942857H168.228571c-14.628571 0-21.942857-7.314286-21.942857-21.942857V146.285714c0-14.628571 7.314286-21.942857 21.942857-21.942857h248.685715z m0-65.828571H168.228571C117.028571 58.514286 73.142857 95.085714 73.142857 146.285714v256c0 51.2 43.885714 95.085714 95.085714 95.085715h256c43.885714 0 87.771429-43.885714 87.771429-95.085715V146.285714C512 95.085714 468.114286 58.514286 416.914286 58.514286z m373.028571 36.571428c7.314286 0 14.628571 0 14.628572 7.314286l146.285714 146.285714c7.314286 7.314286 7.314286 21.942857 0 29.257143l-146.285714 146.285714c-7.314286 7.314286-21.942857 7.314286-29.257143 0l-146.285715-146.285714c-7.314286-7.314286-7.314286-21.942857 0-29.257143l146.285715-146.285714c0-7.314286 7.314286-7.314286 14.628571-7.314286z m0-73.142857c-21.942857 0-51.2 7.314286-65.828571 29.257143l-146.285715 146.285714c-14.628571 21.942857-29.257143 43.885714-29.257142 65.828572s7.314286 51.2 29.257142 65.828571l146.285715 146.285714c36.571429 36.571429 95.085714 36.571429 131.657143 0l146.285714-146.285714c14.628571-14.628571 29.257143-43.885714 29.257143-65.828571 0-21.942857-7.314286-51.2-29.257143-65.828572l-146.285714-146.285714c-14.628571-14.628571-43.885714-29.257143-65.828572-29.257143zM416.914286 599.771429c14.628571 0 21.942857 7.314286 21.942857 21.942857V877.714286c0 14.628571-7.314286 21.942857-21.942857 21.942857H168.228571c-14.628571 0-21.942857-7.314286-21.942857-21.942857V621.714286c0-14.628571 7.314286-21.942857 21.942857-21.942857h248.685715z m0-73.142858H168.228571c-21.942857 0-51.2 7.314286-65.828571 29.257143s-29.257143 43.885714-29.257143 65.828572V877.714286c0 51.2 43.885714 95.085714 95.085714 95.085714h256c43.885714-7.314286 87.771429-43.885714 87.771429-95.085714V621.714286c0-21.942857-7.314286-51.2-29.257143-65.828572-14.628571-14.628571-36.571429-29.257143-65.828571-29.257143z m475.428571 73.142858c14.628571 0 21.942857 7.314286 21.942857 21.942857V877.714286c0 14.628571-7.314286 21.942857-21.942857 21.942857H643.657143c-14.628571 0-21.942857-7.314286-21.942857-21.942857V621.714286c0-14.628571 7.314286-21.942857 21.942857-21.942857h248.685714z m0-73.142858H643.657143c-21.942857 0-51.2 7.314286-65.828572 29.257143s-29.257143 43.885714-29.257142 65.828572V877.714286c0 51.2 43.885714 95.085714 95.085714 95.085714h256c51.2 0 95.085714-43.885714 95.085714-95.085714V621.714286c0-21.942857-7.314286-51.2-29.257143-65.828572s-43.885714-29.257143-73.142857-29.257143z" p-id="17441"></path></svg>